<?xml version='1.0' encoding='utf-8'?>
<svg xmlns="http://www.w3.org/2000/svg" viewBox="0 0 900 520" role="img" aria-label="Queue threshold reliability curves"><rect width="900" height="520" fill="white" /><line x1="72" y1="74.39999999999999" x2="876" y2="74.39999999999999" stroke="#777" stroke-dasharray="6 5" /><text x="62" y="461.0" text-anchor="end" font-size="13" fill="#222">0.0</text><text x="62" y="249.0" text-anchor="end" font-size="13" fill="#222">0.5</text><text x="62" y="79.39999999999999" text-anchor="end" font-size="13" fill="#222">0.9</text><text x="62" y="37.0" text-anchor="end" font-size="13" fill="#222">1.0</text><text x="72.0" y="480" text-anchor="middle" font-size="13" fill="#222">0</text><text x="273.0" y="480" text-anchor="middle" font-size="13" fill="#222">64</text><text x="474.0" y="480" text-anchor="middle" font-size="13" fill="#222">128</text><text x="675.0" y="480" text-anchor="middle" font-size="13" fill="#222">192</text><text x="876.0" y="480" text-anchor="middle" font-size="13" fill="#222">256</text><line x1="72" y1="32" x2="72" y2="456" stroke="#222" /><line x1="72" y1="456" x2="876" y2="456" stroke="#222" /><polyline points="75.14,32.00 76.19,32.00 77.23,32.00 78.28,32.00 80.38,32.00 81.42,32.00 82.47,32.00 83.52,32.00 84.56,32.00 85.61,32.00 86.66,32.00 88.75,32.00 90.84,32.00 91.89,32.00 92.94,32.00 93.98,32.00 95.03,32.00 96.08,32.00 97.12,32.43 100.27,32.43 102.36,32.43 103.41,32.43 105.50,32.42 109.69,32.42 110.73,32.42 111.78,32.42 113.88,32.41 114.92,32.41 115.97,32.41 117.02,32.41 118.06,32.40 119.11,32.39 120.16,32.39 122.25,36.21 125.39,36.21 126.44,36.20 128.53,36.52 133.77,36.52 134.81,36.51 135.86,36.51 136.91,36.50 139.00,38.04 142.14,38.03 144.23,38.01 145.28,38.32 147.38,38.63 149.47,39.25 153.66,40.16 155.75,40.14 159.94,40.11 162.03,40.06 164.12,40.28 165.17,40.22 166.22,40.46 167.27,40.43 168.31,46.07 169.36,46.31 170.41,50.41 171.45,50.34 172.50,58.37 173.55,58.61 176.69,59.09 178.78,59.33 179.83,59.23 180.88,59.71 184.02,59.62 185.06,59.61 192.39,59.53 196.58,60.23 197.62,60.47 199.72,60.40 201.81,61.05 202.86,61.50 203.91,61.48 206.00,63.65 208.09,63.63 210.19,63.55 211.23,63.78 212.28,63.74 213.33,63.71 214.38,64.97 215.42,64.89 216.47,64.69 217.52,64.63 218.56,76.12 219.61,77.89 220.66,78.56 221.70,78.26 222.75,83.82 223.80,83.98 227.98,84.15 229.03,84.31 230.08,84.39 232.17,84.34 235.31,84.50 240.55,84.34 245.78,84.71 248.92,84.66 251.02,84.60 252.06,84.79 256.25,84.76 258.34,85.13 259.39,85.08 260.44,85.39 262.53,85.18 263.58,85.68 264.62,89.03 265.67,91.54 266.72,91.09 267.77,91.89 268.81,96.25 269.86,96.53 270.91,97.78 271.95,98.32 273.00,105.50 286.61,105.65 289.75,105.52 303.36,105.95 308.59,106.06 324.30,106.36 328.48,106.66 330.58,106.81 334.77,107.94 335.81,107.88 338.95,107.99 342.09,108.88 353.61,109.17 356.75,109.04 357.80,109.32 358.84,109.90 360.94,111.64 361.98,114.47 364.08,114.90 365.12,119.16 366.17,119.99 367.22,120.81 368.27,121.35 369.31,125.02 370.36,125.73 371.41,126.75 371.41,127.01 372.45,127.91 373.50,138.16 387.11,138.28 394.44,138.20 469.81,138.44" fill="none" stroke="#006d77" stroke-width="2" /><circle cx="217.52" cy="64.63" r="5" fill="#006d77" stroke="white" stroke-width="1.5" /><line x1="640" y1="32" x2="670" y2="32" stroke="#006d77" stroke-width="3" /><text x="680" y="37" font-size="13" fill="#222">dsllama-8b theta=46.33</text><polyline points="75.14,32.00 76.19,32.00 77.23,32.00 78.28,32.00 80.38,32.00 82.47,32.00 83.52,32.00 84.56,32.00 86.66,32.00 88.75,32.00 90.84,32.00 95.03,32.00 96.08,32.00 97.12,32.00 104.45,32.00 105.50,32.00 108.64,32.00 119.11,32.00 120.16,32.00 121.20,32.00 122.25,32.00 133.77,32.00 134.81,32.00 135.86,32.00 136.91,32.00 137.95,32.00 139.00,32.00 159.94,32.00 165.17,32.00 166.22,32.00 167.27,32.00 168.31,32.00 169.36,32.00 170.41,32.00 171.45,32.00 172.50,32.00 194.48,32.00 198.67,32.00 199.72,32.00 200.77,32.00 201.81,32.00 202.86,32.00 203.91,32.00 204.95,32.00 206.00,32.00 211.23,32.00 213.33,32.00 216.47,32.00 217.52,32.00 219.61,32.00 220.66,32.00 222.75,32.00 244.73,32.00 256.25,32.00 257.30,32.00 259.39,32.00 260.44,32.00 261.48,32.00 263.58,32.00 264.62,32.00 265.67,32.00 266.72,32.00 267.77,32.00 268.81,32.00 269.86,32.00 270.91,32.00 271.95,32.00 273.00,32.00 299.17,32.00 306.50,32.00 323.25,32.00 333.72,32.00 334.77,32.00 336.86,32.00 340.00,32.00 348.38,32.00 355.70,32.00 357.80,32.00 359.89,32.00 361.98,32.00 364.08,32.00 365.12,32.00 366.17,32.00 367.22,32.00 368.27,32.00 369.31,32.00 370.36,32.00 371.41,32.00 372.45,32.00 373.50,32.71 374.55,32.89 405.95,33.24 407.00,35.88 416.42,35.87 420.61,35.86 421.66,36.38 422.70,36.37 423.75,37.26 432.12,37.59 445.73,37.76 455.16,37.75 456.20,37.73 461.44,37.72 463.53,38.38 466.67,38.71 467.72,38.70 468.77,38.69 470.86,38.65 474.00,43.58 510.64,43.55 515.88,43.53 517.97,43.51 520.06,43.48 521.11,44.24 523.20,44.23 524.25,47.18 542.05,47.91 567.17,48.80 571.36,49.09 573.45,49.23 574.50,60.06 601.72,60.20 608.00,61.44 633.12,61.99 646.73,62.68 648.83,63.49 653.02,64.31 671.86,65.12 673.95,66.74 675.00,79.44 833.08,79.57 839.36,79.94 869.72,80.44 876.00,84.63" fill="none" stroke="#d1495b" stroke-width="2" /><circle cx="673.95" cy="66.74" r="5" fill="#d1495b" stroke="white" stroke-width="1.5" /><line x1="640" y1="50" x2="670" y2="50" stroke="#d1495b" stroke-width="3" /><text x="680" y="55" font-size="13" fill="#222">dsqwen-14b theta=191.67</text><polyline points="75.14,32.00 76.19,32.00 77.23,32.00 78.28,32.00 80.38,32.00 81.42,32.00 82.47,32.00 83.52,32.00 84.56,32.00 88.75,32.00 89.80,32.00 90.84,32.00 91.89,32.00 92.94,32.00 95.03,32.00 96.08,32.00 97.12,32.31 98.17,32.31 99.22,32.31 100.27,32.31 101.31,32.31 104.45,32.31 105.50,32.61 107.59,32.60 109.69,32.60 111.78,32.60 113.88,32.60 114.92,32.60 115.97,32.60 118.06,34.01 119.11,33.99 120.16,33.98 121.20,33.95 122.25,34.15 124.34,34.13 126.44,34.12 127.48,34.11 132.72,34.11 132.72,34.11 134.81,34.10 136.91,34.10 136.91,34.10 139.00,34.07 142.14,34.07 152.61,34.06 154.70,34.28 155.75,34.28 156.80,34.28 158.89,34.27 160.98,34.25 162.03,34.24 163.08,34.23 164.12,34.21 165.17,34.21 166.22,34.62 167.27,34.61 168.31,35.64 170.41,35.80 171.45,36.00 172.50,38.24 174.59,38.24 175.64,38.22 176.69,38.21 178.78,38.19 180.88,38.37 185.06,38.37 193.44,38.55 197.62,38.74 198.67,38.73 201.81,38.73 202.86,38.72 203.91,38.91 206.00,40.15 208.09,40.33 209.14,40.51 210.19,40.84 211.23,40.83 212.28,41.70 214.38,41.83 215.42,42.17 216.47,43.01 217.52,43.19 218.56,43.49 219.61,44.00 220.66,44.78 221.70,45.08 222.75,51.45 224.84,51.37 229.03,52.16 231.12,52.13 232.17,52.11 233.22,52.06 234.27,52.21 235.31,52.51 237.41,52.98 239.50,53.46 258.34,53.44 259.39,53.43 260.44,53.55 262.53,53.86 263.58,54.01 264.62,55.34 265.67,55.28 266.72,55.71 267.77,56.00 268.81,60.13 269.86,60.43 270.91,62.44 271.95,62.69 273.00,66.66 274.05,67.50 275.09,68.32 276.14,68.43 277.19,68.85 278.23,68.95 279.28,69.22 281.38,69.50 284.52,69.64 287.66,69.91 311.73,69.90 313.83,69.89 314.88,70.63 315.92,71.77 316.97,72.88 318.02,73.07 319.06,77.32 321.16,77.44 331.62,77.70 333.72,77.96 335.81,78.09 338.95,78.22 360.94,78.11 363.03,78.06 364.08,78.29 365.12,79.61 366.17,80.39 367.22,80.64 368.27,81.40 369.31,84.15 370.36,84.27 371.41,85.72 404.91,85.85 405.95,85.97 407.00,86.09 444.69,86.34 462.48,86.83 463.53,87.68 464.58,87.93 465.62,89.62 467.72,90.46 468.77,90.94 471.91,91.18 472.95,91.66 474.00,91.90 477.14,92.14 565.08,92.37 566.12,92.85 567.17,93.32 568.22,93.79 569.27,94.03 570.31,95.32 572.41,95.90 573.45,96.25 574.50,97.18 575.55,97.41 578.69,97.64 582.88,97.87 708.50,98.10 783.88,98.33" fill="none" stroke="#6a4c93" stroke-width="2" /><circle cx="318.02" cy="73.07" r="5" fill="#6a4c93" stroke="white" stroke-width="1.5" /><line x1="640" y1="68" x2="670" y2="68" stroke="#6a4c93" stroke-width="3" /><text x="680" y="73" font-size="13" fill="#222">dsqwen-7b theta=78.33</text><text x="450.0" y="508" text-anchor="middle" font-size="15" fill="#111">queue_len theta (raw queue units)</text><text x="18" y="260.0" text-anchor="middle" font-size="15" fill="#111" transform="rotate(-90 18 260.0)">healthy attainment for queue &lt;= theta</text></svg>