<?xml version='1.0' encoding='utf-8'?>
<svg xmlns="http://www.w3.org/2000/svg" viewBox="0 0 900 520" role="img" aria-label="decode_tps threshold reliability curves"><rect width="900" height="520" fill="white" /><line x1="72" y1="74.39999999999999" x2="876" y2="74.39999999999999" stroke="#777" stroke-dasharray="6 5" /><text x="62" y="461.0" text-anchor="end" font-size="13" fill="#222">0.0</text><text x="62" y="249.0" text-anchor="end" font-size="13" fill="#222">0.5</text><text x="62" y="79.39999999999999" text-anchor="end" font-size="13" fill="#222">0.9</text><text x="62" y="37.0" text-anchor="end" font-size="13" fill="#222">1.0</text><text x="72.0" y="480" text-anchor="middle" font-size="13" fill="#222">0</text><text x="273.0" y="480" text-anchor="middle" font-size="13" fill="#222">2185</text><text x="474.0" y="480" text-anchor="middle" font-size="13" fill="#222">4369</text><text x="675.0" y="480" text-anchor="middle" font-size="13" fill="#222">6554</text><text x="876.0" y="480" text-anchor="middle" font-size="13" fill="#222">8738</text><line x1="72" y1="32" x2="72" y2="456" stroke="#222" /><line x1="72" y1="456" x2="876" y2="456" stroke="#222" /><polyline points="78.28,32.00 78.67,32.00 79.07,32.00 83.78,32.00 84.56,32.00 85.35,32.00 87.70,32.00 90.84,32.00 93.98,32.00 94.38,32.00 94.77,32.00 95.16,32.00 95.55,32.00 97.12,32.00 97.52,32.00 98.30,32.00 98.70,32.00 103.41,32.00 109.69,32.00 110.08,32.00 110.47,32.00 110.87,32.00 111.26,32.00 111.65,32.00 112.04,32.00 112.44,32.00 112.83,32.00 114.40,32.00 115.97,32.00 117.15,32.00 117.54,32.00 117.93,32.00 119.11,32.00 119.50,32.00 119.89,32.00 120.68,32.00 121.46,32.00 121.86,32.00 122.25,32.43 133.24,32.43 133.63,32.43 134.03,32.43 134.42,32.42 134.81,32.41 135.21,32.41 147.38,36.07 148.16,36.06 149.34,36.05 149.73,36.05 151.30,36.04 151.69,36.03 152.09,36.02 152.48,36.02 152.87,36.01 153.66,35.98 154.05,35.97 154.44,35.97 154.83,36.29 155.23,36.28 155.62,36.26 156.01,36.26 156.40,36.25 156.80,36.24 157.58,36.23 157.97,36.23 158.37,36.22 158.76,36.22 159.15,36.21 159.54,36.20 159.94,36.48 163.08,36.47 166.22,37.26 166.61,37.25 167.00,37.25 167.40,37.24 167.79,37.23 168.18,37.54 168.57,37.54 168.97,37.53 169.36,37.52 170.14,37.51 170.54,37.51 171.32,37.50 171.71,37.49 172.11,37.48 172.50,45.01 172.89,45.20 173.29,45.43 173.68,45.69 174.07,45.95 174.46,45.92 174.86,45.90 175.64,46.17 176.03,46.15 176.43,46.14 176.82,46.13 177.21,46.40 177.60,46.37 178.00,48.01 178.39,48.82 178.78,52.79 179.17,54.54 179.57,55.72 179.96,55.97 180.35,56.21 180.74,56.72 181.14,56.97 181.92,57.75 182.31,58.00 182.71,58.26 183.49,59.28 184.28,59.54 185.06,62.78 185.85,62.76 186.63,62.72 187.42,62.97 187.81,62.93 188.20,63.18 188.99,63.41 189.38,63.39 189.77,63.61 190.17,63.57 190.56,63.82 191.34,64.31 191.74,64.29 192.52,64.51 192.91,64.74 193.31,64.72 193.70,64.68 194.48,64.66 194.88,64.62 195.27,64.60 196.05,65.04 196.84,65.28 197.23,65.26 197.62,65.88 199.20,66.36 200.77,66.60 202.34,67.05 203.91,68.43 204.30,68.39 205.48,68.81 206.26,68.79 207.05,69.03 207.83,69.00 208.62,69.24 209.01,69.19 210.19,69.59 210.58,69.83 211.37,70.29 211.76,70.50 212.54,70.48 212.94,70.94 213.33,71.17 213.72,71.12 214.11,71.10 214.90,71.54 215.29,71.74 216.08,71.97 216.47,72.38 217.25,72.61 217.65,72.56 218.04,72.79 218.82,73.02 219.61,73.24 220.00,73.22 221.18,73.40 222.36,73.37 222.75,95.07 223.54,95.01 224.32,95.16 224.71,95.32 225.11,95.29 225.50,95.48 225.89,96.01 226.28,96.17 226.68,96.13 227.07,96.32 227.46,96.63 228.25,97.01 228.64,96.91 229.03,100.03 229.42,99.93 229.82,99.89 230.21,100.01 230.60,100.08 231.78,100.42 232.17,100.53 232.96,100.46 233.35,100.64 233.74,100.93 234.53,100.72 235.31,100.11 236.10,100.26 236.88,100.58 237.28,100.76 238.85,100.87 240.02,101.19 240.42,101.33 241.20,101.29 241.59,101.61 242.38,101.58 243.16,102.25 243.56,102.21 244.34,102.14 244.73,102.32 245.13,102.28 245.91,102.21 247.88,102.07 249.45,102.25 251.02,102.60 252.98,102.77 254.16,102.94 254.55,103.08 254.94,103.29 255.33,103.26 255.73,103.87 256.12,104.49 256.51,104.31 256.90,104.24 257.30,104.38 257.69,104.35 258.08,104.31 258.47,104.45 258.87,104.96 259.65,104.92 260.04,105.09 260.44,105.57 262.01,106.07 263.58,106.41 265.15,106.57 268.29,106.74 269.86,106.91 270.25,106.87 271.43,107.33 273.00,116.92 274.57,117.07 276.14,117.22 279.28,116.08 279.67,115.78 280.46,115.71 280.85,115.63 282.42,115.90 283.99,116.35 284.78,116.31 285.56,116.42 287.13,116.54 290.27,116.84 290.67,116.80 291.84,117.10 293.41,117.21 294.98,117.36 296.55,117.51 298.12,118.39 304.41,118.68 305.98,118.83 312.26,118.97 313.83,119.54 316.97,119.69 320.11,119.83 321.68,119.97 323.25,119.07 323.64,119.04 324.04,119.00 324.82,119.07 325.21,119.03 325.61,119.00 326.39,119.28 327.18,119.24 328.75,119.21 331.10,119.31 332.28,119.27 332.67,119.69 334.24,119.83 337.38,120.11 338.95,120.39 339.35,120.36 340.52,120.74 342.88,120.70 344.45,120.66 345.23,120.94 346.02,120.87 346.80,120.83 347.59,120.79 348.38,120.65 349.95,120.78 351.52,120.92 353.09,121.47 354.66,121.61 359.37,121.75 360.94,121.71 362.51,121.85 364.08,121.81 373.50,130.81 374.29,130.93 375.07,131.06 377.03,131.32 377.82,131.44 378.21,131.40 379.78,131.53 380.57,131.78 380.96,131.91 385.67,132.04 389.20,132.16 389.60,132.25 391.56,132.38 393.13,132.34 395.09,132.59 399.02,132.72 404.12,132.84 404.91,132.97 406.48,133.09 406.87,133.22 407.65,133.47 409.22,133.60 409.62,133.72 410.40,133.97 411.19,135.88 455.16,136.00 508.55,136.13 510.12,136.25 524.25,138.44" fill="none" stroke="#006d77" stroke-width="2" /><circle cx="222.36" cy="73.37" r="5" fill="#006d77" stroke="white" stroke-width="1.5" /><line x1="640" y1="32" x2="670" y2="32" stroke="#006d77" stroke-width="3" /><text x="680" y="37" font-size="13" fill="#222">dsllama-8b theta=1634.13</text><polyline points="77.89,32.00 78.28,32.00 83.78,32.00 84.17,32.00 84.56,32.00 90.84,32.00 92.41,32.00 93.98,32.00 94.38,32.00 94.77,32.00 95.16,32.00 95.55,32.00 97.12,32.00 109.69,32.00 111.26,32.00 112.83,32.00 115.97,32.00 116.36,32.00 116.75,32.00 117.15,32.00 117.54,32.00 117.93,32.00 118.32,32.00 118.72,32.00 119.11,32.00 120.68,32.00 122.25,32.00 147.38,32.00 153.66,32.00 154.05,32.00 154.44,32.00 154.83,32.00 155.23,32.00 155.62,32.00 156.40,32.00 156.80,32.00 157.19,32.00 157.97,32.00 158.37,32.00 158.76,32.00 159.15,32.00 159.54,32.00 159.94,32.00 160.33,32.00 161.51,32.00 164.65,32.00 166.22,32.00 172.50,32.00 174.07,32.00 221.18,32.00 222.75,32.00 223.54,32.00 223.93,32.00 224.32,32.00 225.50,32.00 226.28,32.00 226.68,32.00 227.07,32.00 227.46,32.00 227.85,32.00 228.64,32.00 229.42,32.00 230.21,32.00 230.60,32.00 230.99,32.00 231.39,32.00 231.78,32.00 232.56,32.00 233.74,32.00 234.13,32.00 234.53,32.00 235.31,32.00 237.28,32.00 237.67,32.00 238.06,32.00 238.85,32.00 240.42,32.00 242.77,32.00 243.16,32.00 243.95,32.00 244.34,32.00 245.13,32.00 245.52,32.00 245.91,32.00 247.88,32.00 262.01,32.00 273.00,32.00 276.14,32.00 279.28,32.00 280.85,32.00 290.27,32.00 296.55,32.00 298.12,32.00 298.91,32.00 299.30,32.00 299.70,32.00 300.09,32.00 300.48,32.00 300.87,32.00 301.27,32.00 301.66,32.00 302.44,32.00 302.84,32.00 303.23,32.00 303.62,32.00 304.01,32.00 305.19,32.00 305.98,32.00 306.37,32.00 306.76,32.00 307.55,32.00 308.72,32.00 309.12,32.00 309.90,32.00 311.47,32.00 311.87,32.00 312.26,32.00 312.65,32.00 313.44,32.00 313.83,32.00 314.22,32.00 315.79,32.00 316.18,32.00 316.97,32.00 329.53,32.00 338.95,32.00 340.52,32.00 342.09,32.23 348.38,32.23 348.77,32.23 349.16,32.23 349.55,32.23 349.95,32.23 350.34,32.23 350.73,32.23 351.52,32.45 351.91,32.45 352.30,32.45 352.69,32.45 353.87,32.45 354.66,32.45 355.44,32.45 356.23,32.45 357.40,32.45 357.80,32.45 358.58,32.45 359.37,32.45 360.94,32.45 362.51,32.45 363.29,32.45 364.08,32.45 364.47,32.45 364.86,32.44 365.26,32.44 365.65,32.44 366.43,32.44 366.83,32.44 367.22,32.66 367.61,32.66 368.00,32.66 368.40,32.66 368.79,32.66 369.18,32.66 369.57,32.66 369.97,32.66 370.36,32.66 370.75,32.66 371.14,32.66 371.54,32.65 371.93,32.65 372.32,32.65 373.50,35.14 376.64,35.33 379.78,35.53 381.35,35.72 386.06,35.92 387.63,36.11 393.91,36.30 400.20,36.30 403.34,36.30 411.19,36.49 411.97,36.49 412.37,36.49 413.15,36.48 415.90,36.48 416.29,36.48 418.65,36.47 419.43,36.47 420.61,36.47 422.57,36.47 423.75,37.43 425.71,37.43 426.89,37.42 427.28,37.42 428.46,37.41 428.85,37.41 429.25,37.41 429.64,37.41 431.21,37.40 431.60,37.58 432.78,37.58 433.17,37.58 434.35,37.57 436.31,37.57 437.49,37.56 437.88,37.56 438.67,37.56 439.45,37.74 439.85,37.73 440.24,37.73 440.63,37.73 441.02,37.72 441.42,37.72 442.59,37.71 442.99,37.71 443.38,37.71 443.77,37.70 444.16,37.70 444.56,37.69 445.34,37.69 445.73,37.68 446.91,37.68 447.30,37.85 447.70,37.84 448.09,37.84 448.48,37.83 448.88,37.76 449.27,37.75 449.66,37.75 450.05,37.74 450.45,38.10 450.84,38.09 451.23,38.08 452.41,38.08 458.30,38.26 461.44,38.25 472.43,38.43 474.00,43.10 475.57,43.09 478.71,43.09 481.85,43.08 484.99,43.24 488.13,43.23 492.84,43.23 495.98,43.22 497.55,43.22 500.70,43.38 505.41,43.37 506.98,43.37 508.55,43.53 511.69,43.53 514.83,43.52 519.54,43.52 521.11,43.51 524.25,47.05 527.39,47.19 528.96,47.19 530.53,47.18 539.95,47.33 541.52,47.48 543.09,47.63 546.23,47.78 547.80,47.94 554.09,48.09 555.66,48.24 563.51,48.39 566.65,48.38 568.22,48.37 572.93,48.52 574.50,62.67 580.78,62.66 582.35,62.64 587.06,62.78 594.91,62.77 598.05,62.91 599.62,63.01 602.77,63.15 605.91,63.14 610.62,63.13 612.19,63.12 616.90,63.25 620.04,63.24 624.75,63.23 626.32,63.22 629.46,63.21 634.17,63.20 637.31,63.19 642.02,63.18 643.59,63.15 646.73,63.14 654.59,63.28 662.44,63.42 664.01,63.40 665.58,63.53 667.15,63.67 668.72,63.81 670.29,63.80 671.86,64.07 673.43,64.06 675.00,80.81 678.14,80.94 684.42,81.06 747.23,81.19 822.61,81.31 876.00,84.63" fill="none" stroke="#d1495b" stroke-width="2" /><circle cx="673.43" cy="64.06" r="5" fill="#d1495b" stroke="white" stroke-width="1.5" /><line x1="640" y1="50" x2="670" y2="50" stroke="#d1495b" stroke-width="3" /><text x="680" y="55" font-size="13" fill="#222">dsqwen-14b theta=6536.53</text><polyline points="78.67,32.00 79.07,32.00 83.78,32.00 84.56,32.00 84.96,32.00 85.35,32.00 86.13,32.00 87.70,32.00 95.55,32.00 96.73,32.00 97.12,32.00 98.70,32.00 99.09,32.00 99.48,32.00 99.87,32.00 100.27,32.00 103.41,32.00 112.83,32.00 113.61,32.00 114.01,32.00 114.40,32.00 114.79,32.00 115.18,32.00 115.97,32.00 119.11,32.00 119.50,32.00 119.89,32.00 120.29,32.00 121.07,32.00 121.46,32.00 121.86,32.00 122.25,32.34 123.04,32.34 123.82,32.34 124.61,32.34 125.39,32.33 125.78,32.33 126.18,32.32 127.75,32.32 128.14,32.32 128.53,32.31 131.67,32.31 133.24,32.31 134.81,32.31 141.09,33.50 141.49,33.50 141.88,33.49 142.66,34.09 143.06,34.08 143.84,34.08 144.23,34.08 147.38,34.05 150.52,34.05 152.09,34.05 153.66,34.01 154.05,34.01 154.44,34.01 155.62,34.01 156.01,34.00 156.80,34.00 157.58,34.00 157.97,34.00 159.15,33.99 159.54,33.99 159.94,33.93 163.08,33.93 163.86,33.93 164.65,33.93 165.43,34.20 166.22,34.14 167.79,34.14 168.57,34.14 168.97,34.40 169.36,34.92 169.75,34.92 170.14,35.15 170.54,35.15 170.93,35.14 171.32,35.14 171.71,35.14 172.50,35.95 172.89,35.95 173.29,35.93 173.68,35.93 174.07,35.93 174.46,35.92 174.86,35.91 175.25,35.91 175.64,35.90 176.82,35.90 178.00,36.12 182.71,36.12 185.06,36.32 185.46,36.32 186.24,36.32 186.63,36.76 187.03,37.42 187.42,39.63 187.81,40.72 188.20,42.23 188.60,42.65 188.99,43.08 190.17,43.50 190.56,44.13 190.95,46.02 191.34,48.08 191.74,50.11 192.13,52.74 192.52,56.17 192.91,57.51 193.31,58.85 193.70,59.61 194.09,59.99 194.48,60.13 194.88,60.88 195.27,61.22 195.66,61.93 196.05,62.37 196.45,63.04 196.84,64.07 197.23,64.23 197.62,65.67 198.02,65.81 198.41,65.98 198.80,66.29 199.20,67.28 199.59,68.33 199.98,69.35 200.37,69.98 200.77,70.23 201.16,71.04 201.55,71.37 202.34,71.35 202.73,71.32 203.12,71.30 203.51,71.26 204.30,71.23 204.69,71.21 205.08,71.17 206.26,71.14 206.65,71.10 208.22,71.07 208.62,71.05 209.01,71.03 209.40,71.01 209.79,71.00 210.19,70.60 214.90,70.58 216.47,70.56 218.04,70.55 219.61,70.85 221.18,70.99 222.75,69.89 224.32,70.19 225.11,70.16 225.89,70.14 226.68,70.30 227.46,70.29 229.03,70.26 230.60,70.24 231.39,70.23 232.17,70.32 233.74,70.27 235.31,70.24 236.88,70.23 238.45,70.35 239.24,70.34 240.02,70.32 240.42,70.31 241.59,70.29 242.77,70.28 244.73,70.24 245.52,70.21 247.88,70.07 248.27,70.03 249.45,70.00 249.84,69.98 250.23,69.96 251.02,69.90 252.19,69.89 252.59,69.84 252.98,69.83 253.37,69.81 254.16,69.94 254.94,69.92 255.33,69.91 255.73,70.02 256.12,70.00 257.30,69.99 258.08,69.97 258.87,69.95 260.04,69.92 260.44,69.15 261.22,69.14 262.01,69.08 262.79,69.06 263.58,69.04 265.15,69.02 265.93,69.01 266.72,69.28 267.50,69.25 268.29,69.40 269.07,69.39 269.86,69.54 270.64,69.52 271.04,69.49 271.43,70.10 273.00,73.81 274.57,73.78 276.14,73.91 277.71,74.48 278.50,74.46 279.28,74.68 280.07,74.67 280.46,74.64 280.85,75.05 282.42,75.17 283.21,75.31 283.99,75.39 285.56,75.53 286.35,75.66 287.13,75.64 287.53,75.62 287.92,75.61 288.70,76.54 289.49,76.51 289.88,76.49 290.27,77.31 291.06,77.30 291.84,77.85 292.63,77.96 293.41,78.85 294.20,78.82 294.98,79.08 295.77,79.18 296.55,79.42 297.34,79.38 298.12,83.97 298.91,83.95 299.30,83.94 300.48,83.92 301.27,84.27 302.05,84.38 302.84,84.49 303.62,84.74 304.41,85.26 305.19,85.38 305.98,85.76 307.55,85.73 309.90,85.69 310.69,85.78 311.08,85.91 312.26,86.27 313.04,86.25 313.83,86.34 315.40,86.72 315.79,86.70 316.97,87.08 318.54,87.19 320.11,87.31 321.68,87.56 322.86,87.54 323.25,92.35 324.82,92.93 326.39,93.16 327.96,93.28 328.75,93.24 329.53,93.36 332.67,93.48 334.24,93.44 335.81,93.87 338.95,93.85 340.52,93.97 342.09,93.95 342.88,94.05 343.66,94.29 345.23,94.65 348.38,94.77 348.77,94.75 349.95,94.87 351.12,94.85 351.52,95.08 355.83,95.20 356.23,95.32 357.80,95.28 359.37,95.36 360.54,95.34 361.72,95.31 362.51,95.43 365.65,95.51 366.43,95.49 373.50,98.33" fill="none" stroke="#6a4c93" stroke-width="2" /><circle cx="276.14" cy="73.91" r="5" fill="#6a4c93" stroke="white" stroke-width="1.5" /><line x1="640" y1="68" x2="670" y2="68" stroke="#6a4c93" stroke-width="3" /><text x="680" y="73" font-size="13" fill="#222">dsqwen-7b theta=2218.67</text><text x="450.0" y="508" text-anchor="middle" font-size="15" fill="#111">decode_tps theta (raw per-replica units)</text><text x="18" y="260.0" text-anchor="middle" font-size="15" fill="#111" transform="rotate(-90 18 260.0)">healthy attainment for value &lt;= theta</text></svg>