<?xml version='1.0' encoding='utf-8'?>
<svg xmlns="http://www.w3.org/2000/svg" viewBox="0 0 900 520" role="img" aria-label="prefill_tps threshold reliability curves"><rect width="900" height="520" fill="white" /><line x1="72" y1="74.39999999999999" x2="876" y2="74.39999999999999" stroke="#777" stroke-dasharray="6 5" /><text x="62" y="461.0" text-anchor="end" font-size="13" fill="#222">0.0</text><text x="62" y="249.0" text-anchor="end" font-size="13" fill="#222">0.5</text><text x="62" y="79.39999999999999" text-anchor="end" font-size="13" fill="#222">0.9</text><text x="62" y="37.0" text-anchor="end" font-size="13" fill="#222">1.0</text><text x="72.0" y="480" text-anchor="middle" font-size="13" fill="#222">0</text><text x="273.0" y="480" text-anchor="middle" font-size="13" fill="#222">8200</text><text x="474.0" y="480" text-anchor="middle" font-size="13" fill="#222">16400</text><text x="675.0" y="480" text-anchor="middle" font-size="13" fill="#222">24600</text><text x="876.0" y="480" text-anchor="middle" font-size="13" fill="#222">32800</text><line x1="72" y1="32" x2="72" y2="456" stroke="#222" /><line x1="72" y1="456" x2="876" y2="456" stroke="#222" /><polyline points="73.05,32.00 73.69,32.00 73.79,32.00 73.90,32.00 74.11,32.00 75.37,32.00 75.58,32.00 76.19,32.00 77.06,32.00 77.38,32.00 78.43,32.00 78.71,32.00 78.75,32.00 78.85,32.00 79.06,32.00 79.13,32.00 79.17,32.00 80.38,32.00 82.05,32.00 82.06,32.00 82.12,32.00 82.22,32.00 82.86,32.00 83.74,32.00 84.65,32.00 84.75,32.00 84.86,32.00 85.07,32.00 85.28,32.00 85.39,32.00 85.40,32.00 85.41,32.00 85.49,33.12 86.12,33.12 86.24,33.08 86.25,33.07 86.33,33.07 86.44,33.07 87.18,33.01 91.39,33.01 91.60,33.00 92.10,32.98 92.12,32.96 92.24,50.15 92.94,50.13 93.29,50.55 94.61,50.53 95.45,50.51 95.47,50.47 96.29,50.45 97.12,49.88 97.15,49.29 97.30,48.55 97.61,48.53 97.72,48.91 97.93,48.90 97.96,48.88 98.35,48.87 98.67,48.85 98.80,48.41 98.83,48.43 98.98,48.39 100.92,48.38 101.30,48.72 101.41,49.06 102.18,49.05 102.36,55.09 104.28,55.07 104.69,55.05 106.37,55.38 106.79,55.36 108.89,55.34 110.14,55.67 112.20,58.27 112.24,68.11 112.47,68.08 112.69,68.02 113.11,68.00 113.32,67.97 113.53,67.94 113.74,67.89 114.06,67.81 114.16,67.78 114.27,67.73 114.34,68.02 114.37,67.99 114.48,67.96 114.58,67.91 114.71,67.88 115.00,67.83 115.22,67.78 115.55,67.75 115.64,67.65 115.85,66.92 116.01,67.21 117.22,67.18 117.27,67.46 117.69,67.74 118.11,68.02 118.90,67.41 118.95,66.37 119.36,66.64 119.74,66.59 120.20,66.57 120.58,66.45 121.04,66.69 121.41,66.64 121.46,66.90 121.88,67.43 122.25,67.14 122.30,66.93 122.72,67.45 123.09,67.43 124.81,67.68 125.23,67.66 125.23,68.17 125.60,73.85 125.65,82.82 126.44,83.05 126.49,83.29 127.28,83.52 127.33,83.99 127.65,82.78 127.76,82.53 127.97,82.46 128.07,82.40 128.11,82.63 128.59,83.32 129.01,83.54 129.13,83.51 129.42,83.74 129.79,83.97 130.26,84.19 130.62,84.65 130.71,84.61 131.10,84.84 131.45,84.81 131.46,85.03 131.94,85.26 132.30,85.48 132.36,89.70 133.97,89.92 134.81,90.14 135.65,90.58 136.13,90.80 136.55,91.23 137.39,91.45 138.16,91.89 138.23,92.10 139.00,92.54 139.07,92.75 139.46,91.62 139.48,91.83 139.56,91.79 139.67,91.76 139.84,92.18 139.88,92.11 139.90,92.54 139.98,92.50 140.09,92.47 140.51,92.43 140.93,92.40 141.51,92.82 141.57,92.78 141.58,93.20 141.88,93.17 142.00,93.37 142.35,93.79 142.84,94.00 143.19,94.21 143.26,94.63 143.68,94.83 143.78,94.80 144.03,95.00 144.10,94.97 144.73,94.93 144.86,95.14 145.15,95.10 145.57,95.03 145.70,95.44 145.78,95.41 145.99,95.37 146.19,95.58 146.20,95.43 146.54,95.64 147.03,96.25 147.38,96.45 148.21,96.66 148.71,96.86 149.05,97.06 149.54,97.27 149.89,97.47 150.72,97.67 151.56,97.88 152.40,111.14 152.48,116.49 152.95,116.76 153.16,116.93 153.24,117.06 153.32,116.98 153.37,117.15 153.90,117.50 154.07,117.93 154.11,118.11 154.21,118.06 154.57,117.93 154.64,118.10 154.85,118.45 154.91,118.40 154.95,118.57 154.99,118.49 155.75,121.22 156.22,121.39 156.59,121.16 156.67,121.07 157.09,120.98 157.27,121.11 157.43,121.18 157.80,121.35 157.93,121.31 158.22,121.26 158.26,121.39 158.35,121.30 158.75,121.63 159.10,121.03 159.18,120.64 159.80,120.80 161.17,120.97 161.38,121.13 161.61,121.46 161.80,121.62 161.91,121.79 162.12,122.12 162.45,122.28 162.54,122.44 162.65,122.61 162.86,122.93 163.07,125.45 163.29,125.93 167.47,126.24 169.15,126.40 169.99,126.88 173.34,127.04 174.18,127.35 175.01,127.51 176.69,127.67 178.36,127.83 179.20,132.02 180.04,132.18 184.23,132.48 188.41,132.64 189.25,132.94 190.93,133.10 192.72,133.49 193.56,133.44 194.39,133.35 195.23,133.50 195.65,133.40 195.95,133.70 196.79,133.85 196.91,133.96 197.33,133.91 197.75,133.86 198.17,133.77 198.59,133.92 199.84,133.87 200.68,133.97 200.98,134.27 201.10,134.42 201.52,134.37 201.94,134.28 202.65,134.18 203.20,134.09 203.49,134.04 203.62,133.99 204.32,133.76 204.45,133.67 205.16,133.58 205.29,133.73 205.71,133.68 206.00,132.00 206.13,131.92 206.84,131.88 210.19,132.02 211.03,132.17 212.84,132.66 213.26,132.57 213.54,132.71 214.51,132.76 215.21,133.05 215.35,133.01 217.03,132.96 217.72,133.25 218.29,133.16 219.54,133.07 219.96,133.21 220.80,133.50 221.08,133.64 221.22,133.60 221.91,133.74 222.06,133.69 222.48,133.98 222.75,134.12 223.32,134.03 223.74,133.98 224.57,133.94 224.99,134.04 225.83,134.18 226.25,134.23 227.09,134.37 227.51,134.28 228.77,134.42 230.02,134.38 231.28,134.29 232.54,134.24 232.96,135.06 235.05,135.15 235.89,135.29 236.73,135.38 237.57,135.52 237.99,135.66 238.83,135.94 239.66,136.08 240.08,136.03 240.92,136.12 241.34,136.08 242.60,136.31 244.27,136.45 244.69,136.54 245.53,136.45 246.20,136.41 247.04,136.32 247.21,136.41 247.88,136.36 248.05,136.46 248.47,136.59 248.71,136.37 249.55,136.15 250.14,136.20 250.39,136.06 251.23,136.02 251.40,135.98 251.82,136.07 252.06,135.89 252.66,135.85 252.90,135.80 253.08,135.76 253.91,135.72 254.57,135.63 254.75,135.58 255.17,135.54 255.41,135.50 256.01,135.41 256.25,135.32 256.85,135.28 257.09,135.19 257.69,135.11 257.93,135.06 258.76,134.93 259.60,134.25 259.78,134.08 265.23,134.21 266.91,134.30 267.33,134.40 267.75,134.36 268.17,134.27 268.59,134.72 269.00,134.51 269.42,134.42 269.84,134.38 270.26,134.34 270.68,134.30 271.10,134.39 271.52,134.52 272.36,134.48 272.78,134.61 273.00,134.67 273.20,134.82 273.84,134.74 274.67,134.70 275.51,134.66 276.35,134.62 277.19,134.70 278.02,134.66 278.86,134.58 279.70,134.54 281.38,134.46 282.21,134.42 283.89,134.37 284.73,134.29 285.56,134.21 286.40,134.02 287.24,133.70 288.07,133.63 288.91,133.63 289.75,133.55 290.59,133.43 291.42,133.35 293.10,133.31 293.94,133.23 294.77,133.19 295.61,133.15 296.45,133.11 297.29,132.99 298.12,133.67 298.96,134.01 299.80,135.61 300.64,136.16 301.48,136.45 302.31,136.53 303.99,136.74 304.83,136.86 306.50,136.98 307.34,137.11 308.18,137.23 309.85,137.59 311.52,137.72 313.20,138.44" fill="none" stroke="#006d77" stroke-width="2" /><circle cx="125.60" cy="73.85" r="5" fill="#006d77" stroke="white" stroke-width="1.5" /><line x1="640" y1="32" x2="670" y2="32" stroke="#006d77" stroke-width="3" /><text x="680" y="37" font-size="13" fill="#222">dsllama-8b theta=2186.67</text><polyline points="73.26,32.00 73.58,32.00 73.69,32.00 74.53,32.00 74.74,32.00 74.95,32.00 75.16,32.00 75.37,32.00 77.03,32.00 77.06,32.00 77.45,32.00 78.01,32.00 78.11,32.00 78.22,32.00 78.29,32.00 78.32,32.00 78.71,32.00 78.75,32.00 82.05,32.00 82.06,32.00 82.12,32.00 82.86,32.00 82.89,32.00 82.90,32.00 83.49,32.00 83.74,32.00 83.81,32.00 83.91,32.00 84.12,32.00 84.33,32.00 84.54,32.00 84.56,32.00 84.57,32.00 84.65,32.00 84.75,32.00 84.99,32.00 85.40,32.00 85.41,32.00 85.49,32.00 92.10,32.00 92.12,32.00 92.24,33.02 92.66,33.52 92.76,34.03 92.94,34.02 93.08,34.53 93.80,34.52 94.03,34.52 94.24,34.52 94.77,35.02 94.87,35.01 95.05,35.00 95.19,35.00 95.47,34.98 95.61,34.82 95.72,34.81 95.89,34.80 96.45,34.80 96.73,34.80 97.12,34.64 97.15,34.52 97.96,34.51 98.14,34.51 98.80,34.44 98.83,34.40 98.98,34.31 99.09,34.30 99.93,34.30 100.56,34.30 101.20,34.30 102.36,34.63 104.36,35.00 105.73,35.00 106.57,35.37 110.26,35.37 110.58,35.36 111.63,35.73 111.95,36.10 112.05,36.47 112.20,36.35 112.24,36.17 112.37,36.16 112.47,50.62 115.17,50.61 115.85,50.38 116.37,50.31 116.39,50.29 116.48,50.26 116.59,50.24 116.80,50.18 117.22,50.17 117.85,50.15 118.17,50.14 118.27,50.08 118.48,50.06 118.59,50.04 118.69,49.97 118.90,49.81 118.95,49.55 119.22,49.42 119.36,49.41 119.74,49.32 119.78,49.28 120.20,49.23 120.62,49.16 121.04,49.09 121.41,49.01 121.46,48.98 121.88,48.97 122.25,48.63 122.30,48.49 122.72,48.48 125.60,48.25 125.65,48.21 126.44,48.20 126.49,48.19 131.94,48.17 132.36,47.61 133.20,47.60 133.62,47.59 134.45,47.58 137.39,47.57 140.74,47.56 143.68,47.55 146.19,47.54 146.61,47.81 151.56,47.79 151.64,47.78 152.40,47.27 152.48,47.53 153.32,47.78 156.25,48.02 159.18,47.99 159.60,47.98 160.44,47.95 161.28,47.93 162.12,47.92 162.54,47.90 162.96,47.88 163.80,47.86 164.63,47.83 165.47,47.82 165.80,47.48 165.89,47.78 166.64,47.77 167.47,47.76 168.31,47.75 169.15,47.72 169.99,47.70 170.82,47.70 171.66,47.69 172.50,47.64 178.89,47.87 179.20,47.80 179.30,47.91 180.56,47.90 182.24,48.11 182.55,48.10 183.39,48.09 187.69,48.08 188.41,48.07 188.53,48.29 190.20,48.28 192.60,47.83 192.72,47.27 193.98,47.26 196.91,47.47 197.62,47.46 198.59,47.66 200.14,47.66 203.20,47.86 204.03,47.85 204.45,47.84 205.71,48.05 206.13,57.96 212.84,58.19 214.37,58.18 214.51,58.17 215.77,58.16 216.05,58.35 216.19,58.33 218.29,58.32 219.96,58.31 222.06,58.30 223.59,58.28 224.57,58.27 228.61,58.26 229.45,58.45 230.02,58.42 231.70,58.41 232.12,58.60 232.80,59.01 232.96,66.84 233.80,66.81 234.21,66.79 234.47,66.78 234.63,66.76 235.89,66.74 236.73,66.73 237.15,66.70 237.99,66.68 238.41,66.64 239.24,66.59 240.08,66.54 240.92,66.53 241.34,66.50 242.18,66.48 242.60,66.43 243.44,66.42 243.69,66.59 244.69,66.56 245.11,66.55 245.53,66.52 246.20,66.27 246.37,65.96 247.88,65.91 248.71,65.90 249.55,65.87 252.06,65.82 252.90,65.77 253.74,65.72 255.41,65.69 256.25,65.66 257.09,65.65 257.93,65.59 259.60,65.21 262.11,65.18 263.79,65.35 267.98,65.51 268.81,65.48 269.65,65.47 272.16,65.63 273.84,65.96 278.02,66.13 286.40,70.07 290.59,70.04 296.45,70.02 298.12,70.01 300.64,70.17 303.15,70.15 306.50,70.14 310.69,70.12 311.52,70.10 313.20,73.41 313.44,73.36 314.27,73.32 314.69,73.31 314.88,73.44 315.53,73.43 315.95,73.41 316.37,73.39 316.55,73.38 316.79,73.35 317.21,73.28 318.05,73.25 318.47,73.23 318.88,73.22 319.30,73.20 319.72,73.17 320.98,73.15 321.82,73.10 322.24,73.07 322.41,73.22 322.66,73.20 323.25,73.35 323.50,73.32 324.75,73.29 325.17,73.26 325.76,73.41 326.01,73.39 327.69,73.36 328.11,73.33 328.53,73.31 328.94,73.29 329.78,73.25 329.95,73.39 330.20,73.36 330.62,73.35 332.30,73.33 332.72,73.30 333.55,73.25 340.00,80.24 343.35,80.22 344.19,80.19 350.89,80.17 352.56,80.31 353.40,80.24 355.08,80.38 362.61,80.52 366.80,80.50 367.09,80.48 369.31,80.47 373.50,80.45 376.85,80.43 382.71,80.57 384.27,80.55 384.69,80.52 385.11,80.50 386.37,80.48 386.79,80.43 387.21,80.39 387.63,80.33 388.46,80.32 388.57,80.46 388.88,80.42 389.30,80.40 389.72,80.38 391.40,80.33 391.82,80.28 391.92,80.42 392.24,80.38 393.60,85.54 393.91,85.02 395.28,85.15 396.95,85.10 398.62,85.23 401.14,85.21 402.81,85.13 403.65,85.11 404.49,85.10 406.16,85.08 407.84,85.02 409.51,85.00 410.35,84.98 411.19,84.94 412.86,84.92 417.05,84.91 420.40,84.85 432.12,84.98 457.21,84.96 457.63,84.94 462.66,84.92 465.17,84.91 467.69,84.87 468.94,84.85 469.36,84.83 469.78,84.79 470.62,84.77 472.30,84.76 472.32,84.89 473.13,84.85 473.97,84.81 474.39,84.35 474.81,84.27 475.23,84.26 475.65,84.22 476.49,84.16 476.91,84.13 478.16,84.11 500.80,87.59 551.05,87.57 554.40,86.59 557.75,86.57 661.60,86.46 662.44,86.44 663.28,86.42 664.11,86.38 664.95,86.37 665.79,86.33 666.62,86.31 669.14,86.26 669.98,86.24 670.81,86.22 673.33,86.20 675.00,86.18 676.67,86.16 678.35,86.13 680.86,86.11 681.70,86.09 683.38,86.07 685.05,86.05 688.40,85.98 691.75,85.96 693.43,85.93 695.10,85.91 695.94,85.89 698.45,85.85 700.12,85.84 701.80,85.82 703.48,85.80 705.99,85.78 706.82,85.76 707.66,85.73 709.34,85.69 711.01,85.66 712.69,85.64 715.20,85.58 795.60,85.57 797.27,85.55 798.11,85.53 799.79,85.51 805.65,85.50 806.49,85.48 811.51,85.46 813.19,85.44 815.70,85.42 819.89,85.39 826.59,85.34 829.10,85.32 829.94,85.30 832.45,85.28 833.29,85.26 834.13,85.25 834.96,85.23 838.31,85.19 839.15,85.18 842.50,85.16 845.01,85.11 851.71,85.07 854.23,85.05 855.90,85.04 856.74,85.00 858.41,84.98 860.09,84.96 863.44,84.95 864.28,84.93 865.11,84.91 866.79,84.90 869.30,84.84 871.81,84.81 872.65,84.77 873.49,84.76 874.33,84.74 875.16,84.72 876.00,84.63" fill="none" stroke="#d1495b" stroke-width="2" /><circle cx="333.55" cy="73.25" r="5" fill="#d1495b" stroke="white" stroke-width="1.5" /><line x1="640" y1="50" x2="670" y2="50" stroke="#d1495b" stroke-width="3" /><text x="680" y="55" font-size="13" fill="#222">dsqwen-14b theta=10670.40</text><polyline points="73.05,32.00 73.69,32.00 73.90,32.00 74.11,32.00 75.37,32.00 75.48,32.00 75.58,32.00 75.79,32.00 76.01,32.00 76.11,32.00 76.19,32.00 76.22,32.00 76.61,32.00 77.03,32.00 78.71,32.00 78.75,32.00 79.13,32.00 79.17,32.00 79.27,32.00 79.38,32.00 79.48,32.00 79.54,32.00 79.59,32.00 80.38,32.00 80.38,32.00 80.43,32.00 80.80,32.00 81.64,32.00 82.06,32.00 82.12,32.00 82.86,32.00 84.75,32.00 85.40,32.00 85.41,32.00 85.49,32.00 86.24,32.00 86.25,32.00 86.33,32.00 86.44,32.00 86.55,32.00 86.97,32.00 87.07,32.00 87.08,32.00 87.09,32.00 88.75,32.00 88.77,32.00 90.44,32.00 92.12,32.00 92.96,32.00 93.38,32.00 97.57,32.00 97.99,32.00 98.80,32.36 98.83,32.66 98.98,32.64 99.09,32.64 99.19,32.64 99.25,32.64 99.30,32.64 99.40,32.64 99.51,32.64 99.62,32.64 99.72,32.64 99.83,32.64 100.08,32.64 100.14,32.63 100.47,32.62 100.50,32.60 100.92,32.60 101.76,32.59 102.18,32.59 105.53,32.58 106.37,32.58 108.05,32.57 108.47,32.57 109.31,32.57 109.72,32.57 111.40,32.57 112.20,32.57 112.24,32.56 113.88,32.56 113.92,32.56 114.71,32.56 115.17,32.55 115.59,32.55 117.22,32.55 117.27,32.55 118.11,32.55 118.90,32.55 118.95,32.81 119.22,32.81 119.33,32.81 119.78,32.81 119.85,32.80 120.06,32.80 120.49,32.80 120.58,32.80 120.59,32.80 120.62,32.80 120.70,32.80 121.04,32.80 121.12,32.80 121.22,32.80 121.33,32.80 121.43,32.80 121.46,32.80 121.75,32.80 121.96,32.80 122.25,32.79 122.30,32.77 122.49,32.77 122.59,32.76 122.72,32.76 123.09,32.76 123.14,32.75 123.56,32.75 123.93,32.75 123.98,32.75 124.39,32.75 124.81,32.75 125.23,32.75 125.60,32.96 125.65,33.38 127.33,33.38 127.75,33.61 129.01,33.61 129.42,33.61 129.84,33.84 131.94,33.83 132.36,38.94 132.78,38.93 133.20,39.14 134.87,39.14 135.29,39.13 135.71,39.12 136.13,39.11 137.39,39.33 137.81,39.33 139.07,39.47 139.48,39.47 139.90,39.69 141.58,39.68 142.00,39.67 142.42,39.67 142.84,39.66 143.26,39.65 144.10,39.65 144.93,39.86 145.77,40.08 146.19,40.07 147.45,40.06 148.21,40.06 148.29,40.26 148.71,40.25 149.05,40.25 149.54,40.24 149.89,40.24 150.38,40.23 150.72,40.64 150.80,40.64 151.56,40.84 151.64,41.05 152.40,42.07 152.48,46.63 152.90,46.63 153.24,47.00 153.74,46.99 154.07,46.98 154.57,47.17 154.99,47.36 155.83,47.35 156.67,47.34 157.09,47.52 157.43,47.70 157.51,47.69 158.35,47.68 158.77,47.67 159.10,47.57 159.18,47.41 159.60,47.40 160.02,47.38 160.77,47.54 160.86,47.53 161.28,47.51 161.61,47.51 161.70,47.48 162.45,47.44 162.54,47.44 163.29,47.43 163.38,47.39 163.80,47.39 164.12,47.36 164.63,47.35 165.05,47.34 165.47,47.33 165.80,47.14 165.89,47.35 166.64,47.33 168.31,47.33 168.41,47.50 169.15,47.67 169.24,47.85 169.99,48.02 170.50,48.02 171.34,48.01 171.66,48.00 172.50,47.99 172.60,47.88 173.02,48.05 173.34,48.04 173.44,48.03 173.86,48.03 174.27,48.01 174.69,48.01 175.11,47.99 175.53,47.99 175.85,48.33 176.37,48.32 176.69,48.50 176.79,48.49 177.21,48.48 177.53,48.66 178.05,48.65 178.36,49.34 179.20,54.48 179.30,55.40 180.14,55.38 180.88,55.54 181.71,56.20 182.24,56.19 182.55,56.53 182.66,56.49 183.08,56.48 183.39,56.81 184.23,56.96 184.75,57.13 185.17,57.27 185.90,57.44 187.27,57.43 187.57,58.40 187.69,58.39 188.11,58.37 188.41,59.35 188.53,59.34 188.95,59.33 189.25,59.98 189.78,60.12 190.09,61.24 190.20,61.21 190.62,61.19 190.93,61.34 191.04,61.50 191.46,61.47 191.76,61.78 191.88,61.77 192.30,61.75 192.60,62.57 192.72,62.44 193.14,62.43 193.98,62.42 194.27,62.73 194.81,62.88 195.11,63.04 195.23,63.02 195.65,63.34 195.95,63.96 196.79,64.43 199.01,64.42 199.30,64.58 200.14,64.89 200.26,65.04 200.68,65.03 200.98,65.19 201.10,65.16 201.81,65.47 201.94,65.62 202.65,65.93 203.49,66.09 204.32,66.24 205.16,66.55 206.00,71.42 206.13,72.60 206.55,72.58 206.84,73.32 206.97,73.31 207.39,73.27 207.68,73.42 207.81,73.41 208.23,73.39 208.51,73.54 209.35,73.68 209.90,73.65 210.32,73.64 211.03,73.78 211.16,73.77 211.58,73.73 212.00,73.72 212.42,73.69 212.70,73.98 213.26,73.95 213.68,73.93 214.09,73.90 215.21,74.04 215.35,74.01 215.77,73.98 216.89,74.27 217.45,74.24 217.72,74.38 217.87,74.37 218.29,74.35 218.71,74.34 219.12,74.32 219.40,74.42 219.54,74.05 220.24,74.12 221.08,74.32 222.75,74.57 223.59,74.65 225.26,74.77 226.10,74.76 226.94,74.90 228.61,75.04 232.80,77.27 271.33,77.41 278.86,77.53 279.70,77.77 280.54,77.75 281.38,77.68 282.21,77.63 283.05,77.59 283.89,77.58 284.73,77.56 286.40,77.59 298.12,77.73 313.20,77.75 314.04,77.72 315.71,77.70 316.55,77.90 317.39,78.27 318.23,79.56 319.06,80.19 319.90,81.08 320.74,81.30 321.58,81.56 324.09,81.79 324.92,82.13 325.76,83.23 326.60,84.43 327.44,85.60 328.27,87.20 329.11,89.33 329.95,90.13 330.79,90.93 331.62,91.39 332.46,91.61 333.30,91.65 334.14,92.10 334.98,92.29 335.81,92.69 336.65,92.87 337.49,93.24 338.32,93.81 339.16,93.89 340.00,94.77 340.84,94.85 341.67,94.97 342.51,95.18 343.35,95.79 344.19,96.47 345.03,97.10 345.86,97.46 346.70,97.57 347.54,98.10 348.38,98.33" fill="none" stroke="#6a4c93" stroke-width="2" /><circle cx="221.08" cy="74.32" r="5" fill="#6a4c93" stroke="white" stroke-width="1.5" /><line x1="640" y1="68" x2="670" y2="68" stroke="#6a4c93" stroke-width="3" /><text x="680" y="73" font-size="13" fill="#222">dsqwen-7b theta=6081.67</text><text x="450.0" y="508" text-anchor="middle" font-size="15" fill="#111">prefill_tps theta (raw per-replica units)</text><text x="18" y="260.0" text-anchor="middle" font-size="15" fill="#111" transform="rotate(-90 18 260.0)">healthy attainment for value &lt;= theta</text></svg>